<?xml version="1.0" encoding="UTF-8"?>
<svg id="Layer_1" data-name="Layer 1" xmlns="http://www.w3.org/2000/svg" viewBox="0 0 143.42 62.58">
  <defs>
    <style>
      .cls-1 {
        fill: #fff;
      }
    </style>
  </defs>
  <path class="cls-1" d="M31.29,0C14.04,0,0,14.04,0,31.29s14.04,31.29,31.29,31.29,31.29-14.04,31.29-31.29S48.55,0,31.29,0ZM18.17,57.45C8.35,52.5,2.02,42.28,2.02,31.29S8.35,10.08,18.17,5.13v52.32ZM42.4,58.38c-3.53,1.45-7.27,2.19-11.1,2.19s-7.57-.74-11.1-2.19v-25.83h22.21v25.83ZM42.4,30.52h-22.21V4.21c3.53-1.45,7.27-2.19,11.1-2.19s7.57.74,11.1,2.19v26.31ZM42.65,30.65v-.02.02s0,0,0,0ZM44.42,57.45V5.13c9.82,4.95,16.15,15.17,16.15,26.16s-6.33,21.21-16.15,26.16Z"/>
  <g>
    <path class="cls-1" d="M141.85,39.65c-.9.99-2.03,1.77-3.35,2.33-1.32.56-2.72.84-4.16.84s-2.66-.25-3.84-.74c-1.17-.49-2.21-1.2-3.09-2.09-.88-.89-1.57-1.95-2.05-3.14-.48-1.19-.73-2.49-.73-3.87s.25-2.7.73-3.89c.48-1.18,1.17-2.23,2.04-3.12.87-.89,1.9-1.59,3.07-2.08,1.17-.49,2.46-.74,3.84-.74s2.85.28,4.18.84c1.33.56,2.46,1.35,3.36,2.36l.09.11,1.48-1.67-.08-.08c-.75-.79-1.61-1.47-2.57-2.02-.96-.55-2-.97-3.08-1.24-1.09-.27-2.23-.41-3.39-.41-1.67,0-3.25.31-4.69.93-1.44.61-2.72,1.48-3.81,2.57-1.09,1.09-1.95,2.37-2.55,3.81-.6,1.44-.91,3.01-.91,4.65s.31,3.22.91,4.66c.6,1.44,1.46,2.72,2.55,3.81,1.09,1.09,2.37,1.95,3.81,2.57,1.44.62,3.02.93,4.69.93,1.14,0,2.27-.14,3.36-.41,1.09-.27,2.12-.69,3.06-1.24.94-.55,1.81-1.23,2.58-2.02l.08-.08-1.45-1.63-.1.1Z"/>
    <polygon class="cls-1" points="103.98 21.38 101.72 21.38 101.72 44.58 117.91 44.58 117.91 42.49 103.98 42.49 103.98 21.38"/>
    <path class="cls-1" d="M89.89,22.19c-1.12-.54-2.45-.82-3.97-.82h-9.73v23.2h2.25v-9.9h7.48c1.52,0,2.86-.28,3.97-.83,1.12-.55,1.99-1.34,2.59-2.34.6-1,.9-2.18.9-3.51s-.3-2.5-.9-3.49c-.6-.99-1.47-1.77-2.59-2.31ZM89.74,31.36c-.93.84-2.26,1.26-3.95,1.26h-7.35v-9.15h7.35c1.69,0,3.02.41,3.95,1.23.93.81,1.4,1.92,1.4,3.3s-.47,2.53-1.4,3.36Z"/>
  </g>
</svg>